<?xml version="1.0" encoding="UTF-8" standalone="no"?>
<svg
   xmlns:dc="http://purl.org/dc/elements/1.1/"
   xmlns:cc="http://creativecommons.org/ns#"
   xmlns:rdf="http://www.w3.org/1999/02/22-rdf-syntax-ns#"
   xmlns:svg="http://www.w3.org/2000/svg"
   xmlns="http://www.w3.org/2000/svg"
   xmlns:sodipodi="http://sodipodi.sourceforge.net/DTD/sodipodi-0.dtd"
   xmlns:inkscape="http://www.inkscape.org/namespaces/inkscape"
   inkscape:version="1.0 (4035a4fb49, 2020-05-01)"
   sodipodi:docname="icon_linkedin.svg"
   id="svg1512"
   version="1.1"
   viewBox="0 0 34.326 34.326"
   height="34.326"
   width="34.326">
  <metadata
     id="metadata1518">
    <rdf:RDF>
      <cc:Work
         rdf:about="">
        <dc:format>image/svg+xml</dc:format>
        <dc:type
           rdf:resource="http://purl.org/dc/dcmitype/StillImage" />
      </cc:Work>
    </rdf:RDF>
  </metadata>
  <defs
     id="defs1516" />
  <sodipodi:namedview
     inkscape:current-layer="svg1512"
     inkscape:window-maximized="0"
     inkscape:window-y="99"
     inkscape:window-x="800"
     inkscape:cy="20.58231"
     inkscape:cx="24.781384"
     inkscape:zoom="6.1760764"
     showgrid="false"
     id="namedview1514"
     inkscape:window-height="723"
     inkscape:window-width="1019"
     inkscape:pageshadow="2"
     inkscape:pageopacity="0"
     guidetolerance="10"
     gridtolerance="10"
     objecttolerance="10"
     borderopacity="1"
     bordercolor="#666666"
     pagecolor="#ffffff" />
  <path
     style="fill:none;stroke:#000000;stroke-width:1;stroke-opacity:1"
     id="path1545"
     d="m 31.190386,31.004852 h -5.073098 v -7.944449 c 0,-1.894715 -0.03799,-4.331656 -2.635137,-4.331656 -2.643351,0 -3.047967,2.062106 -3.047967,4.194045 v 8.08206 H 15.361085 V 14.676421 h 4.866683 v 2.230525 h 0.06881 a 5.3401043,5.3401157 0 0 1 4.805067,-2.635141 c 5.134715,0 6.088746,3.388918 6.088746,7.784245 z" />
  <path
     style="fill:none;stroke:#000000;stroke-width:1;stroke-opacity:1"
     id="path1543"
     d="M 9.6369032,12.441788 A 2.9411651,2.9411714 0 1 1 12.57807,9.5006161 2.9421921,2.9421984 0 0 1 9.6369032,12.441788 Z" />
  <path
     style="fill:none;stroke:#000000;stroke-width:1;stroke-opacity:1"
     id="path1541"
     d="M 12.175507,31.004852 H 7.1034352 V 14.676421 h 5.0802878 v 16.328431 z" />
  <path
     style="fill:none;stroke:#000000;stroke-opacity:1"
     id="path1510"
     transform="translate(0.5,-1.75)"
     d="M 30.946,2.25 H 2.373 A 2.391,2.391 0 0 0 0,4.653 v 28.52 a 2.391,2.391 0 0 0 2.373,2.4 h 28.573 a 2.4,2.4 0 0 0 2.38,-2.4 V 4.653 A 2.4,2.4 0 0 0 30.946,2.25 Z" />
</svg>
